<svg width="512" height="512" viewBox="0 0 512 512" fill="none" xmlns="http://www.w3.org/2000/svg">
<path d="M402.29 180.969H371.384L386.837 211.874V315.579C386.837 324.113 393.756 331.032 402.29 331.032C410.824 331.032 417.742 324.113 417.742 315.579V196.421C417.742 187.886 410.824 180.969 402.29 180.969Z" fill="#2D8C63"/>
<path d="M371.384 180.969C362.85 180.969 355.932 187.887 355.932 196.421C355.932 204.955 362.85 211.874 371.384 211.874H386.837V196.421C386.837 187.886 379.918 180.969 371.384 180.969Z" fill="#43B175"/>
<path d="M77.2668 235.053C77.2668 222.269 66.8619 211.874 54.0877 211.874C41.3031 211.874 30.9086 222.269 30.9086 235.053V276.948C30.9086 289.732 41.3031 300.127 54.0877 300.127C66.8619 300.127 77.2668 289.732 77.2668 276.948C77.2668 314.811 77.2668 331.032 54.0877 331.032C24.2639 331.032 0.00317383 306.771 0.00317383 276.948V235.053C0.00317383 205.23 24.2639 180.969 54.0877 180.969C77.2668 180.969 77.2668 196.421 77.2668 235.053Z" fill="#43B175"/>
<path d="M108.172 235.053V276.948C108.172 306.771 83.9114 331.032 54.0876 331.032C66.8619 331.032 77.2667 306.771 77.2667 276.948V235.053C77.2667 205.23 66.8619 180.969 54.0876 180.969C83.9114 180.969 108.172 205.23 108.172 235.053Z" fill="#2D8C63"/>
<path d="M177.709 180.969H146.804L162.257 211.874V315.579C162.257 324.113 169.175 331.032 177.709 331.032C186.243 331.032 193.162 324.113 193.162 315.579V196.421C193.162 187.886 186.244 180.969 177.709 180.969Z" fill="#2D8C63"/>
<path d="M146.804 180.969C138.27 180.969 131.351 187.887 131.351 196.421C131.351 204.955 138.27 211.874 146.804 211.874H162.257V196.421C162.257 187.886 155.339 180.969 146.804 180.969Z" fill="#43B175"/>
<path d="M301.846 235.053C301.846 222.269 291.441 211.874 278.667 211.874C265.882 211.874 255.488 222.269 255.488 235.053V276.948C255.488 289.732 265.882 300.127 278.667 300.127C291.441 300.127 301.846 289.732 301.846 276.948C301.846 314.811 301.846 331.032 278.667 331.032C248.843 331.032 224.583 306.771 224.583 276.948V235.053C224.583 205.23 248.843 180.969 278.667 180.969C301.846 180.969 301.846 196.421 301.846 235.053Z" fill="#43B175"/>
<path d="M332.751 235.053V276.948C332.751 306.771 308.491 331.032 278.667 331.032C291.441 331.032 301.846 306.771 301.846 276.948V235.053C301.846 205.23 291.441 180.969 278.667 180.969C308.491 180.969 332.751 205.23 332.751 235.053Z" fill="#2D8C63"/>
<path d="M496.544 180.969H465.639L481.091 211.874V315.579C481.091 324.113 488.01 331.032 496.544 331.032C505.078 331.032 511.997 324.113 511.997 315.579V196.421C511.997 187.886 505.078 180.969 496.544 180.969Z" fill="#2D8C63"/>
<path d="M465.639 180.969C457.105 180.969 450.186 187.887 450.186 196.421C450.186 204.955 457.105 211.874 465.639 211.874H481.091V196.421C481.091 187.886 474.173 180.969 465.639 180.969Z" fill="#43B175"/>
<path d="M170.495 54.0845C170.495 41.3 160.09 30.9054 147.316 30.9054C134.531 30.9054 124.137 41.3 124.137 54.0845V95.9789C124.137 108.763 134.531 119.158 147.316 119.158C160.09 119.158 170.495 108.763 170.495 95.9789C170.495 133.842 170.495 150.063 147.316 150.063C117.492 150.063 93.2314 125.803 93.2314 95.9789V54.0845C93.2314 24.2608 117.492 0 147.316 0C170.495 0 170.495 15.4527 170.495 54.0845Z" fill="#43B175"/>
<path d="M201.4 54.0845V95.9789C201.4 125.803 177.14 150.063 147.316 150.063C160.09 150.063 170.495 125.803 170.495 95.9789V54.0845C170.495 24.2608 160.09 0 147.316 0C177.14 0 201.4 24.2608 201.4 54.0845Z" fill="#2D8C63"/>
<path d="M496.547 0H465.642L481.095 30.9054V134.611C481.095 143.145 488.013 150.063 496.547 150.063C505.081 150.063 512 143.145 512 134.611V15.4527C512 6.9187 505.081 0 496.547 0Z" fill="#2D8C63"/>
<path d="M465.642 0C457.108 0 450.189 6.9187 450.189 15.4527C450.189 23.9867 457.108 30.9054 465.642 30.9054H481.095V15.4527C481.095 6.9187 474.176 0 465.642 0Z" fill="#43B175"/>
<path d="M271.453 0H240.547L256 30.9054V134.611C256 143.145 262.919 150.063 271.453 150.063C279.987 150.063 286.906 143.145 286.906 134.611V15.4527C286.906 6.9187 279.987 0 271.453 0Z" fill="#2D8C63"/>
<path d="M240.547 0C232.013 0 225.094 6.9187 225.094 15.4527C225.094 23.9867 232.013 30.9054 240.547 30.9054H256V15.4527C256 6.9187 249.081 0 240.547 0Z" fill="#43B175"/>
<path d="M46.3581 0H15.4526L30.9054 30.9054V134.611C30.9054 143.145 37.824 150.063 46.3581 150.063C54.8921 150.063 61.8108 143.145 61.8108 134.611V15.4527C61.8108 6.9187 54.8921 0 46.3581 0Z" fill="#2D8C63"/>
<path d="M15.4527 0C6.9187 0 0 6.9187 0 15.4527C0 23.9867 6.9187 30.9054 15.4527 30.9054H30.9054V15.4527C30.9054 6.9187 23.9867 0 15.4527 0Z" fill="#43B175"/>
<path d="M395.59 54.0845C395.59 41.3 385.185 30.9054 372.41 30.9054C359.626 30.9054 349.231 41.3 349.231 54.0845V95.9789C349.231 108.763 359.626 119.158 372.41 119.158C385.185 119.158 395.59 108.763 395.59 95.9789C395.59 133.842 395.59 150.063 372.41 150.063C342.587 150.063 318.326 125.803 318.326 95.9789V54.0845C318.326 24.2608 342.587 0 372.41 0C395.59 0 395.59 15.4527 395.59 54.0845Z" fill="#43B175"/>
<path d="M426.495 54.0845V95.9789C426.495 125.803 402.234 150.063 372.41 150.063C385.185 150.063 395.589 125.803 395.589 95.9789V54.0845C395.589 24.2608 385.185 0 372.41 0C402.234 0 426.495 24.2608 426.495 54.0845Z" fill="#2D8C63"/>
<path d="M170.495 416.021C170.495 403.236 160.09 392.842 147.316 392.842C134.531 392.842 124.137 403.236 124.137 416.021V457.915C124.137 470.7 134.531 481.094 147.316 481.094C160.09 481.094 170.495 470.7 170.495 457.915C170.495 495.779 170.495 512 147.316 512C117.492 512 93.2314 487.739 93.2314 457.915V416.021C93.2314 386.197 117.492 361.937 147.316 361.937C170.495 361.937 170.495 377.389 170.495 416.021Z" fill="#43B175"/>
<path d="M201.4 416.021V457.915C201.4 487.739 177.14 512 147.316 512C160.09 512 170.495 487.739 170.495 457.915V416.021C170.495 386.197 160.09 361.937 147.316 361.937C177.14 361.937 201.4 386.197 201.4 416.021Z" fill="#2D8C63"/>
<path d="M496.547 361.937H465.642L481.095 392.842V496.547C481.095 505.081 488.013 512 496.547 512C505.081 512 512 505.081 512 496.547V377.389C512 368.855 505.081 361.937 496.547 361.937Z" fill="#2D8C63"/>
<path d="M465.642 361.937C457.108 361.937 450.189 368.855 450.189 377.389C450.189 385.923 457.108 392.842 465.642 392.842H481.095V377.389C481.095 368.855 474.176 361.937 465.642 361.937Z" fill="#43B175"/>
<path d="M271.453 361.937H240.547L256 392.842V496.547C256 505.081 262.919 512 271.453 512C279.987 512 286.906 505.081 286.906 496.547V377.389C286.906 368.855 279.987 361.937 271.453 361.937Z" fill="#2D8C63"/>
<path d="M240.547 361.937C232.013 361.937 225.094 368.855 225.094 377.389C225.094 385.923 232.013 392.842 240.547 392.842H256V377.389C256 368.855 249.081 361.937 240.547 361.937Z" fill="#43B175"/>
<path d="M46.3581 361.937H15.4526L30.9054 392.842V496.547C30.9054 505.081 37.824 512 46.3581 512C54.8921 512 61.8108 505.081 61.8108 496.547V377.389C61.8108 368.855 54.8921 361.937 46.3581 361.937Z" fill="#2D8C63"/>
<path d="M15.4527 361.937C6.9187 361.937 0 368.855 0 377.389C0 385.923 6.9187 392.842 15.4527 392.842H30.9054V377.389C30.9054 368.855 23.9867 361.937 15.4527 361.937Z" fill="#43B175"/>
<path d="M395.59 416.021C395.59 403.236 385.185 392.842 372.41 392.842C359.626 392.842 349.231 403.236 349.231 416.021V457.915C349.231 470.7 359.626 481.094 372.41 481.094C385.185 481.094 395.59 470.7 395.59 457.915C395.59 495.779 395.59 512 372.41 512C342.587 512 318.326 487.739 318.326 457.915V416.021C318.326 386.197 342.587 361.937 372.41 361.937C395.59 361.937 395.59 377.389 395.59 416.021Z" fill="#43B175"/>
<path d="M426.495 416.021V457.915C426.495 487.739 402.234 512 372.41 512C385.185 512 395.589 487.739 395.589 457.915V416.021C395.589 386.197 385.185 361.937 372.41 361.937C402.234 361.937 426.495 386.197 426.495 416.021Z" fill="#2D8C63"/>
</svg>
